<?xml version="1.0" encoding="UTF-8" standalone="no"?>
<svg
   viewBox="0 0 250 100"
   version="1.1"
   id="svg145"
   sodipodi:docname="scroll-voting.svg"
   width="250"
   height="100"
   inkscape:version="1.1 (c68e22c387, 2021-05-23)"
   xmlns:inkscape="http://www.inkscape.org/namespaces/inkscape"
   xmlns:sodipodi="http://sodipodi.sourceforge.net/DTD/sodipodi-0.dtd"
   xmlns="http://www.w3.org/2000/svg"
   xmlns:svg="http://www.w3.org/2000/svg">
  <sodipodi:namedview
     id="namedview147"
     pagecolor="#ffffff"
     bordercolor="#666666"
     borderopacity="1.0"
     inkscape:pageshadow="2"
     inkscape:pageopacity="0.0"
     inkscape:pagecheckerboard="0"
     showgrid="false"
     inkscape:zoom="3.3034169"
     inkscape:cx="119.72452"
     inkscape:cy="68.56537"
     inkscape:window-width="1920"
     inkscape:window-height="1012"
     inkscape:window-x="0"
     inkscape:window-y="32"
     inkscape:window-maximized="1"
     inkscape:current-layer="svg145" />
  <defs
     id="defs4">
    <style
       id="style2">.cls-1,.cls-2{fill:none;}.cls-1{stroke:#dcf1ef;stroke-width:154px;}.cls-1,.cls-21{stroke-miterlimit:10;}.cls-2{stroke:#60ccc1;stroke-linecap:round;stroke-linejoin:round;stroke-width:6px;}.cls-3{fill:#f0ac48;}.cls-4{fill:#5087de;}.cls-5{fill:#57aef3;}.cls-6{fill:#9de0da;}.cls-7{fill:#60ccc1;}.cls-8{fill:#83e6dc;}.cls-21,.cls-9{fill:#b0ebe6;}.cls-10{fill:#eb5f57;}.cls-11{fill:#fa847d;}.cls-12{fill:#f8cbb8;}.cls-13{fill:#fff;}.cls-14{fill:#edb198;}.cls-15{fill:#f0c2a0;}.cls-16{fill:#f8bfa7;}.cls-17{fill:#de9966;}.cls-18{fill:#f06960;}.cls-19{fill:#f7caad;}.cls-20{fill:#2196f3;}.cls-21{stroke:#b0ebe6;stroke-width:40px;}</style>
  </defs>
  <g
     id="Layer_1"
     data-name="Layer 1"
     transform="matrix(0.06256119,0,0,0.06256119,81.158655,3.3169321)">
    <circle
       class="cls-1"
       cx="750.21997"
       cy="773"
       r="553.32001"
       id="circle6" />
    <line
       class="cls-2"
       x1="91.43"
       y1="700.95001"
       x2="373.14999"
       y2="700.95001"
       id="line8" />
    <line
       class="cls-2"
       x1="166.53999"
       y1="800.60999"
       x2="1001.58"
       y2="800.60999"
       id="line10" />
    <line
       class="cls-2"
       x1="91.43"
       y1="899.57001"
       x2="612.71002"
       y2="899.57001"
       id="line12" />
    <line
       class="cls-2"
       x1="227.97"
       y1="999.39001"
       x2="1006.79"
       y2="993.01001"
       id="line14" />
    <circle
       class="cls-3"
       cx="207.60001"
       cy="703.27002"
       r="21.68"
       id="circle16" />
    <circle
       class="cls-4"
       cx="207.60001"
       cy="902.81"
       r="21.68"
       id="circle18" />
    <circle
       class="cls-5"
       cx="505.29999"
       cy="996.20001"
       r="21.68"
       id="circle20" />
    <circle
       class="cls-5"
       cx="909.34998"
       cy="993.01001"
       r="21.68"
       id="circle22" />
    <circle
       class="cls-4"
       cx="336.48999"
       cy="797.35999"
       r="21.68"
       id="circle24" />
    <circle
       class="cls-6"
       cx="978.64001"
       cy="820.84003"
       r="237.88"
       id="circle26" />
    <circle
       class="cls-7"
       cx="1094.6899"
       cy="422.72"
       r="169.64999"
       id="circle28" />
    <circle
       class="cls-8"
       cx="612.71002"
       cy="411.69"
       r="300.82001"
       id="circle30" />
    <circle
       class="cls-9"
       cx="952.66998"
       cy="184.92"
       r="98.839996"
       id="circle32" />
    <circle
       class="cls-9"
       cx="732.16998"
       cy="310.84"
       r="131.46001"
       id="circle34" />
    <line
       class="cls-2"
       x1="1376.7"
       y1="993.01001"
       x2="895.23999"
       y2="993.01001"
       id="line36" />
    <line
       class="cls-2"
       x1="1330.77"
       y1="1087.7"
       x2="858.62"
       y2="1092.66"
       id="line38" />
    <line
       class="cls-2"
       x1="1276.6"
       y1="1191.62"
       x2="770.27002"
       y2="1191.62"
       id="line40" />
    <circle
       class="cls-3"
       cx="1045.15"
       cy="1092.66"
       r="21.68"
       id="circle42" />
    <circle
       class="cls-5"
       cx="336.48999"
       cy="990.57001"
       r="21.68"
       id="circle44" />
    <circle
       class="cls-4"
       cx="1045.15"
       cy="1188.48"
       r="21.68"
       id="circle46" />
    <circle
       class="cls-5"
       cx="1230.47"
       cy="991.15997"
       r="21.68"
       id="circle48" />
    <circle
       class="cls-4"
       cx="1230.47"
       cy="1188.48"
       r="21.68"
       id="circle50" />
    <path
       class="cls-10"
       d="m 529,568 h 213.5 a 47.46,47.46 0 0 1 47.5,47.51 v 204.05 a 48.61,48.61 0 0 1 -48.61,48.61 H 529 A 48.61,48.61 0 0 1 480.39,819.56 V 616.66 A 48.61,48.61 0 0 1 529,568 Z"
       id="path52" />
    <path
       class="cls-11"
       d="m 536.84,557.94 h 198.37 a 45.1,45.1 0 0 1 45.1,45.1 v 198.37 a 46.2,46.2 0 0 1 -46.2,46.2 H 536.84 a 46.2,46.2 0 0 1 -46.2,-46.2 V 604.13 a 46.2,46.2 0 0 1 46.2,-46.19 z"
       id="path54" />
    <path
       class="cls-12"
       d="m 714,668.6 c -17.4,0.09 -31.64,14.85 -31.78,33 l -2,255.19 c -0.15,18.11 13.85,32.73 31.26,32.63 17.41,-0.1 31.64,-14.85 31.79,-33 l 2,-255.19 c 0.15,-18.11 -13.85,-32.73 -31.26,-32.63 z"
       id="path56" />
    <path
       class="cls-12"
       d="m 776,797.37 c -17.4,0.08 -31.64,14.84 -31.79,33 l -1,127.6 c -0.14,18.12 13.85,32.74 31.26,32.65 17.41,-0.09 31.63,-14.85 31.78,-33 l 1,-127.6 C 807.41,811.89 793.4,797.29 776,797.38 Z"
       id="path58" />
    <path
       class="cls-12"
       d="m 838.84,805.94 c -17.4,0.09 -31.63,14.85 -31.78,33 l -1,127.6 c -0.15,18.11 13.85,32.73 31.25,32.65 17.4,-0.08 31.64,-14.85 31.77,-33 l 1,-127.61 c 0.15,-18.11 -13.85,-32.71 -31.26,-32.63 z"
       id="path60" />
    <path
       class="cls-12"
       d="m 901.71,828 c -17.43,0.09 -31.64,14.84 -31.79,33 l -1,127.59 c -0.13,18.12 13.87,32.73 31.28,32.64 17.41,-0.09 31.62,-14.86 31.77,-33 l 1,-127.59 C 933.1,842.52 919.12,827.91 901.72,828 Z"
       id="path62" />
    <path
       class="cls-12"
       d="m 649.67,894.63 a 26.93,26.93 0 0 0 -34.54,-10.16 v 0 c -13.52,6.43 -20,22.7 -14.66,37 l 47.92,129.12 67.75,-50.81 z"
       id="path64" />
    <path
       class="cls-12"
       d="m 831.09,1014.57 c 0.43,-54.22 -41.45,-97.94 -93.54,-97.66 -52.09,0.28 -94.67,44.43 -95.09,98.64 -0.42,54.21 41.45,97.94 93.54,97.68 52.09,-0.26 94.66,-44.44 95.09,-98.66 z"
       id="path66" />
    <path
       class="cls-12"
       d="M 683.86,982.3 682,1215.78 c -0.3,39.18 30,70.8 67.62,70.6 l 84,-0.45 c 35.59,-0.17 64.67,-30.34 65,-67.37 l 0.72,-89.69 a 115.12,115.12 0 0 1 9.59,-45.14 l 3.46,-8 A 236.59,236.59 0 0 0 932,983.36 l 0.39,-61.63 -195.61,-32.53 z"
       id="path68" />
    <path
       class="cls-13"
       d="m 665.66,1243.36 42.75,29 214.53,-1.11 0.33,-126.57 c 0.07,-9.73 -7.44,-17.56 -16.77,-17.5 l -223.67,1.15 c -9.35,0 -17,8 -17.05,17.7 l -0.12,97.38 z"
       id="path70" />
    <path
       class="cls-4"
       d="m 941.93,1181.44 c 0.07,-8.32 -6.36,-15 -14.37,-15 l -266.43,1.38 c -8,0 -14.54,6.83 -14.61,15.17 l 0.69,82.2 c 0.21,24 18.79,43.2 41.86,43.22 l 207.17,0.2 c 23.14,0 42.28,-19.25 43,-43.33 z"
       id="path72" />
    <path
       class="cls-14"
       d="m 869.89,856.67 h 0.45 a 1.4,1.4 0 0 1 1.25,1.47 l -2.75,62.16 a 1.43,1.43 0 0 1 -1.34,1.39 v 0 a 1.39,1.39 0 0 1 -1.41,-1.47 l 2.3,-62.2 a 1.42,1.42 0 0 1 1.5,-1.35 z"
       id="path74" />
    <path
       class="cls-14"
       d="m 807,836.25 h 0.46 a 1.4,1.4 0 0 1 1.25,1.48 l -2.71,62.2 a 1.42,1.42 0 0 1 -1.34,1.38 v 0 a 1.38,1.38 0 0 1 -1.41,-1.47 l 2.29,-62.19 a 1.43,1.43 0 0 1 1.46,-1.4 z"
       id="path76" />
    <path
       class="cls-14"
       d="m 744.49,828.81 h 0.45 a 1.4,1.4 0 0 1 1.26,1.48 l -2.75,62.16 a 1.43,1.43 0 0 1 -1.34,1.39 v 0 a 1.39,1.39 0 0 1 -1.41,-1.47 L 743,830.2 a 1.42,1.42 0 0 1 1.49,-1.39 z"
       id="path78" />
    <path
       class="cls-14"
       d="m 677.2,936.53 0.19,-0.12 a 3.19,3.19 0 0 1 4.82,1.58 l 9.52,25 a 3.84,3.84 0 0 1 -1.29,4.41 v 0 a 3.2,3.2 0 0 1 -4.94,-1.46 l -9.72,-24.85 a 3.83,3.83 0 0 1 1.42,-4.56 z"
       id="path80" />
    <path
       class="cls-15"
       d="M 1177.47,702.54 A 16.4,16.4 0 0 1 1166,684.63 v 0 a 16.42,16.42 0 0 1 17.65,-14.16 l 78.66,6.63 -16,46.35 -68.8,-20.91 z"
       id="path82" />
    <path
       class="cls-4"
       d="m 1242.87,875.9 a 13.36,13.36 0 0 0 9,-16.63 l -77.2,-257.74 a 13.351142,13.351142 0 1 0 -25.58,7.66 l 77.2,257.74 a 13.36,13.36 0 0 0 16.62,9 z"
       id="path84" />
    <path
       class="cls-15"
       d="m 1135.32,753.74 a 18.62,18.62 0 0 1 12.49,-23.19 l 77.48,-23.2 A 18.62,18.62 0 1 1 1236,743 l -77.47,23.2 a 18.61,18.61 0 0 1 -23.18,-12.49 z"
       id="path86" />
    <path
       class="cls-15"
       d="m 1144.09,790 a 18.61,18.61 0 0 1 12.49,-23.18 l 67.74,-20.29 A 18.62,18.62 0 1 1 1235,782.2 l -67.74,20.29 a 18.62,18.62 0 0 1 -23.18,-12.5 z"
       id="path88" />
    <path
       class="cls-16"
       d="m 1161.34,823.71 a 18.62,18.62 0 0 1 12.49,-23.18 l 77.49,-23.21 A 18.622062,18.622062 0 0 1 1262,813 l -77.49,23.21 a 18.62,18.62 0 0 1 -23.18,-12.5 z"
       id="path90" />
    <path
       class="cls-15"
       d="m 1189.72,854.1 a 18.62,18.62 0 0 1 12.49,-23.19 l 55.39,-16.59 a 18.623497,18.623497 0 1 1 10.69,35.68 l -55.39,16.59 a 18.61,18.61 0 0 1 -23.18,-12.49 z"
       id="path92" />
    <path
       class="cls-15"
       d="m 1161.73,823.52 a 18.63,18.63 0 0 1 12.49,-23.19 l 69.41,-20.79 a 18.63,18.63 0 1 1 10.69,35.69 L 1184.91,836 a 18.61,18.61 0 0 1 -23.18,-12.49 z"
       id="path94" />
    <path
       class="cls-15"
       d="m 1274.15,786.08 c -29.48,8.83 -55.34,-8.31 -64.17,-37.8 -8.83,-29.49 2.71,-60.15 32.19,-69 a 55.735914,55.735914 0 0 1 32,106.78 z"
       id="path96" />
    <path
       class="cls-15"
       d="m 1231.18,708 127,-38 a 40.29,40.29 0 0 1 50.15,27 l 14.24,47.57 A 38.06,38.06 0 0 1 1397,791.93 l -48.77,14.61 a 62.82,62.82 0 0 0 -23,12.57 l -3.74,3.22 a 128.6,128.6 0 0 1 -47,25.72 l -36.06,10.88 -42.59,-105 z"
       id="path98" />
    <path
       class="cls-17"
       d="m 1228.65,824.2 c -0.19,-0.64 -1.38,-0.85 -2.66,-0.46 l -31.17,9.33 c -1.28,0.39 -2.16,1.21 -2,1.86 0.16,0.65 1.38,0.85 2.67,0.46 l 31.16,-9.33 c 1.29,-0.39 2.17,-1.22 2,-1.86 z"
       id="path100" />
    <path
       class="cls-17"
       d="m 1212.82,790.14 c -0.19,-0.63 -1.22,-0.88 -2.32,-0.56 l -40.63,12.17 c -1.08,0.33 -1.82,1.11 -1.63,1.74 0.19,0.63 1.23,0.88 2.32,0.56 l 40.63,-12.17 c 1.09,-0.33 1.82,-1.11 1.63,-1.74 z"
       id="path102" />
    <path
       class="cls-17"
       d="m 1198.56,754.38 c -0.2,-0.64 -1.38,-0.85 -2.67,-0.46 l -39.63,11.87 c -1.29,0.38 -2.17,1.21 -2,1.85 0.17,0.64 1.38,0.85 2.66,0.47 l 39.64,-11.87 c 1.28,-0.39 2.16,-1.22 2,-1.86 z"
       id="path104" />
    <path
       class="cls-18"
       d="M 1041.7,611 A 116.7,116.7 0 1 1 1187,689.28 116.69,116.69 0 0 1 1041.7,611 Z"
       id="path106" />
    <path
       class="cls-13"
       d="M 1069,602.8 A 88.24,88.24 0 1 1 1178.81,662 88.23,88.23 0 0 1 1069,602.8 Z"
       id="path108" />
    <path
       class="cls-18"
       d="M 1172.78,573.18 1193,535.69 a 13.512184,13.512184 0 0 0 -23.79,-12.82 l -20.21,37.49 -37.48,-20.21 a 13.512184,13.512184 0 0 0 -12.82,23.79 l 37.49,20.2 -20.19,37.49 a 13.512184,13.512184 0 0 0 23.79,12.82 L 1160,597 l 37.49,20.21 a 13.51,13.51 0 0 0 12.82,-23.78 l -37.49,-20.21 z"
       id="path110" />
    <path
       class="cls-19"
       d="m 362.67,390.33 a 16.68,16.68 0 0 0 0.73,-21.6 v 0 a 16.68,16.68 0 0 0 -22.75,-3.19 l -65.21,46.64 38.06,32.11 49.17,-54 z"
       id="path112" />
    <path
       class="cls-4"
       d="m 395.62,575.55 a 13.56,13.56 0 0 1 -16.45,-9.85 l -66.46,-265 A 13.552897,13.552897 0 1 1 339,294.1 l 66.47,265 a 13.56,13.56 0 0 1 -9.85,16.45 z"
       id="path114" />
    <path
       class="cls-19"
       d="M 426.05,413.11 A 18.91,18.91 0 0 0 403.1,399.37 l -79.65,20 a 18.91,18.91 0 1 0 9.2,36.68 l 79.66,-20 a 18.91,18.91 0 0 0 13.74,-22.94 z"
       id="path116" />
    <path
       class="cls-19"
       d="M 437.22,449.3 A 18.91,18.91 0 0 0 414.28,435.56 L 344.63,453 a 18.91,18.91 0 1 0 9.2,36.68 l 69.65,-17.47 a 18.91,18.91 0 0 0 13.74,-22.94 z"
       id="path118" />
    <path
       class="cls-16"
       d="m 439.66,487.68 a 18.91,18.91 0 0 0 -22.94,-13.74 l -79.65,20 a 18.912933,18.912933 0 0 0 9.2,36.69 l 79.65,-20 a 18.91,18.91 0 0 0 13.74,-22.95 z"
       id="path120" />
    <path
       class="cls-19"
       d="m 430.68,528.93 a 18.91,18.91 0 0 0 -22.94,-13.74 l -56.94,14.28 a 18.912933,18.912933 0 0 0 9.2,36.69 l 56.94,-14.28 a 18.92,18.92 0 0 0 13.74,-23 z"
       id="path122" />
    <path
       class="cls-19"
       d="M 439.22,487.72 A 18.91,18.91 0 0 0 416.28,474 l -71.35,17.9 a 18.912933,18.912933 0 0 0 9.2,36.69 l 71.35,-17.9 a 18.91,18.91 0 0 0 13.74,-22.94 z"
       id="path124" />
    <path
       class="cls-19"
       d="m 321.7,513.42 c 30.31,-7.6 44,-36 36.35,-66.29 C 350.4,416.84 324.47,396 294.16,403.64 a 56.590856,56.590856 0 0 0 27.54,109.78 z"
       id="path126" />
    <path
       class="cls-19"
       d="m 318.63,423 -130.55,32.7 a 40.92,40.92 0 0 0 -29.73,49.63 l 12.27,48.91 a 38.64,38.64 0 0 0 46.89,28.08 l 50.15,-12.58 a 63.78,63.78 0 0 1 26.56,-1 l 4.95,0.87 a 130.67,130.67 0 0 0 54.37,-2 L 393.05,555 379.46,444.2 Z"
       id="path128" />
    <path
       class="cls-17"
       d="m 380.86,521.73 c -0.17,-0.66 0.76,-1.46 2.08,-1.79 l 32,-8 c 1.32,-0.33 2.52,-0.06 2.68,0.6 0.16,0.66 -0.76,1.46 -2.08,1.79 l -32,8 c -1.32,0.33 -2.52,0.06 -2.68,-0.6 z"
       id="path130" />
    <path
       class="cls-17"
       d="m 376.84,483.21 c -0.17,-0.69 0.64,-1.48 1.81,-1.78 l 43.76,-11 c 1.18,-0.29 2.28,0 2.45,0.71 0.17,0.71 -0.65,1.48 -1.82,1.78 l -43.76,11 c -1.18,0.29 -2.27,0 -2.44,-0.71 z"
       id="path132" />
    <path
       class="cls-17"
       d="m 370.29,446.52 c -0.19,-0.75 0.73,-1.63 2,-2 l 40.76,-10.22 c 1.32,-0.33 2.54,0 2.72,0.76 0.18,0.76 -0.72,1.63 -2,2 L 373,447.28 c -1.31,0.33 -2.53,0 -2.72,-0.76 z"
       id="path134" />
    <path
       class="cls-20"
       d="M 433.6,239.92 A 118.5,118.5 0 1 0 347.49,383.69 118.49,118.49 0 0 0 433.6,239.92 Z"
       id="path136" />
    <path
       class="cls-13"
       d="M 405.55,247 A 89.58,89.58 0 1 0 340.46,355.7 89.58,89.58 0 0 0 405.55,247 Z"
       id="path138" />
    <path
       class="cls-20"
       d="m 315,326 a 14.47,14.47 0 0 1 -11,-1.63 l -32.24,-19.3 a 14.53,14.53 0 1 1 14.94,-24.92 l 18.25,10.93 34.43,-76.08 a 14.531525,14.531525 0 0 1 26.47,12 l -41.19,90.91 a 14.57,14.57 0 0 1 -8.89,7.87 c -0.27,0.08 -0.54,0.16 -0.8,0.22 z"
       id="path140" />
    <path
       class="cls-21"
       d="m 365.85,1328.05 a 23.09,23.09 0 0 1 -15.68,5.89 19.07,19.07 0 0 1 -18.88,-21.51 l 17.77,-164.21 a 23.52,23.52 0 0 1 22.44,-20.61 l 164.35,-4.2 a 19.09,19.09 0 0 1 20,20.52 23.5,23.5 0 0 1 -22.53,21.6 l -144.07,3.68 -15.6,144.12 a 23.08,23.08 0 0 1 -7.8,14.72 z"
       id="path142" />
  </g>
</svg>
