<?xml version="1.0" encoding="UTF-8" standalone="no"?>
<svg
   viewBox="0 0 250 100"
   version="1.1"
   id="svg63"
   sodipodi:docname="scroll-mind-map.svg"
   width="250"
   height="100"
   inkscape:version="1.1 (c68e22c387, 2021-05-23)"
   xmlns:inkscape="http://www.inkscape.org/namespaces/inkscape"
   xmlns:sodipodi="http://sodipodi.sourceforge.net/DTD/sodipodi-0.dtd"
   xmlns="http://www.w3.org/2000/svg"
   xmlns:svg="http://www.w3.org/2000/svg">
  <sodipodi:namedview
     id="namedview65"
     pagecolor="#ffffff"
     bordercolor="#666666"
     borderopacity="1.0"
     inkscape:pageshadow="2"
     inkscape:pageopacity="0.0"
     inkscape:pagecheckerboard="0"
     showgrid="false"
     inkscape:zoom="3.2786027"
     inkscape:cx="123.68074"
     inkscape:cy="47.73375"
     inkscape:window-width="1920"
     inkscape:window-height="1012"
     inkscape:window-x="0"
     inkscape:window-y="32"
     inkscape:window-maximized="1"
     inkscape:current-layer="svg63" />
  <defs
     id="defs4">
    <style
       id="style2">.cls-1{fill:#9bd4cf;}.cls-2{fill:#d5f2ef;}.cls-11,.cls-3,.cls-4{fill:none;stroke-linecap:round;stroke-linejoin:round;}.cls-3{stroke:#57aef3;}.cls-3,.cls-4{stroke-width:4px;}.cls-4{stroke:#4db6ac;}.cls-5{fill:#30e6d2;}.cls-6{fill:#57aef3;}.cls-7{fill:#f7a936;}.cls-8{fill:#f05656;}.cls-10,.cls-9{fill:#f5fafa;}.cls-9{fill-rule:evenodd;}.cls-11{stroke:#96e6da;stroke-width:12px;}</style>
  </defs>
  <g
     id="Layer_1"
     data-name="Layer 1"
     transform="matrix(0.06649695,0,0,0.06649695,75.866745,1.2834189)">
    <path
       class="cls-1"
       d="m 540.92,276 -30.67,-86.64 a 4,4 0 0 1 2.21,-5 c 345.28,-145.91 732.47,38.86 836.32,398.92 a 4,4 0 0 1 -2.52,4.88 l -86.64,30.68 a 4,4 0 0 1 -5.19,-2.74 C 1171.81,311.46 835.05,150.84 546.32,278.34 a 4,4 0 0 1 -5.4,-2.34 z"
       id="path6" />
    <path
       class="cls-1"
       d="m 185.5,946.1 -15.36,-43.36 a 4,4 0 0 1 2.44,-5.11 L 259,867 a 4,4 0 0 1 5.19,2.74 c 82.62,304.67 419.38,465.26 708.11,337.79 a 4,4 0 0 1 5.39,2.32 l 30.69,86.66 a 4,4 0 0 1 -2.18,5 C 685,1440.26 300.3,1279.75 185.5,946.1 Z"
       id="path8" />
    <circle
       class="cls-2"
       cx="759.06"
       cy="746.53003"
       r="296.07999"
       id="circle10" />
    <line
       class="cls-3"
       x1="1133.12"
       y1="905.39001"
       x2="1213.46"
       y2="1173.58"
       id="line12" />
    <rect
       class="cls-3"
       x="507.54999"
       y="540.95001"
       width="333.85001"
       height="333.85001"
       transform="rotate(52.14,674.48964,707.92739)"
       id="rect14" />
    <polyline
       class="cls-4"
       points="703.83 473.64 673.24 717.75 908.71 737.23 1133.13 905.39 1330.05 727.39"
       id="polyline16" />
    <polyline
       class="cls-3"
       points="188.2 750 440.24 678.52 386.17 352.05"
       id="polyline18" />
    <circle
       class="cls-5"
       cx="188.2"
       cy="750.69"
       r="37.880001"
       id="circle20" />
    <circle
       class="cls-6"
       cx="1213.46"
       cy="1198.88"
       r="58.299999"
       id="circle22" />
    <circle
       class="cls-7"
       cx="1330.05"
       cy="727.39001"
       r="37.880001"
       id="circle24" />
    <circle
       class="cls-5"
       cx="1147.5699"
       cy="883.58002"
       r="84.699997"
       id="circle26" />
    <circle
       class="cls-6"
       cx="903.84998"
       cy="737.46997"
       r="37.880001"
       id="circle28" />
    <circle
       class="cls-8"
       cx="440.23999"
       cy="669.98999"
       r="52.130001"
       id="circle30" />
    <circle
       class="cls-5"
       cx="674.47998"
       cy="707.87"
       r="82.400002"
       id="circle32" />
    <circle
       class="cls-7"
       cx="729.57001"
       cy="441.10999"
       r="64.5"
       id="circle34" />
    <circle
       class="cls-7"
       cx="645.46997"
       cy="943.27002"
       r="37.880001"
       id="circle36" />
    <circle
       class="cls-5"
       cx="382.39999"
       cy="332.10001"
       r="84.519997"
       id="circle38" />
    <path
       class="cls-9"
       d="m 379.14,336.6 a 5.32,5.32 0 1 0 -5.3,-5.32 5.32,5.32 0 0 0 5.3,5.32 z"
       id="path40" />
    <path
       class="cls-10"
       d="m 379.14,340.1 a 8.82,8.82 0 1 1 8.8,-8.82 8.82,8.82 0 0 1 -8.8,8.82 z m 0,-10.64 a 1.82,1.82 0 1 0 1.8,1.82 1.82,1.82 0 0 0 -1.8,-1.82 z"
       id="path42" />
    <path
       class="cls-10"
       d="m 416.55,372.52 a 2.58,2.58 0 0 0 3.67,0 2.61,2.61 0 0 0 0,-3.68 l -37.42,-37.56 30.79,-30.9 a 2.61,2.61 0 0 0 0,-3.68 2.58,2.58 0 0 0 -3.67,0 l -32.62,32.74 a 2.61,2.61 0 0 0 0,3.68 z"
       id="path44" />
    <path
       class="cls-10"
       d="m 418.39,376.79 v 0 a 6.05,6.05 0 0 1 -4.32,-1.8 l -39.25,-39.4 a 6.12,6.12 0 0 1 0,-8.62 l 32.61,-32.74 a 6,6 0 0 1 4.31,-1.8 v 0 a 6,6 0 0 1 4.31,1.8 6.11,6.11 0 0 1 0,8.62 l -28.33,28.43 35,35.09 a 6.11,6.11 0 0 1 0,8.62 6,6 0 0 1 -4.33,1.8 z"
       id="path46" />
    <path
       class="cls-10"
       d="M 699.07,743.23 675,730.44 a 3.84,3.84 0 0 0 -3.4,-0.1 l -24.84,11.32 c -2.74,1.25 -5.83,-1 -5.22,-3.84 l 5.42,-25.31 a 3.35,3.35 0 0 0 -1,-3.13 l -19.17,-18.6 A 3.44,3.44 0 0 1 629,684.89 L 656.39,682 a 3.68,3.68 0 0 0 2.83,-1.81 l 12.93,-22.85 a 3.78,3.78 0 0 1 6.6,0.2 l 11.53,23.58 a 3.68,3.68 0 0 0 2.71,2 l 27.19,4.54 a 3.43,3.43 0 0 1 1.85,6 l -20.25,17.41 a 3.34,3.34 0 0 0 -1.16,3.06 l 3.89,25.59 c 0.43,2.85 -2.78,4.93 -5.44,3.51 z"
       id="path48" />
    <rect
       class="cls-10"
       x="1100.96"
       y="854.16998"
       width="92.550003"
       height="59.970001"
       rx="4.6700001"
       id="rect50" />
    <path
       class="cls-10"
       d="m 1158.27,937.23 1.89,-25 h 25.92 L 1160.23,940 c -0.98,1.08 -2.12,-0.56 -1.96,-2.77 z"
       id="path52" />
    <path
       class="cls-11"
       d="M 1163.67,585.27 C 1080.14,360.82 831.67,247.01 608.61,331.07"
       id="path54" />
    <path
       class="cls-11"
       d="m 356,889.68 c 83.52,224.45 332,338.26 555.06,254.2"
       id="path56" />
    <polyline
       class="cls-11"
       points="1131.71 580.88 1169.76 595.87 1178.74 554.3"
       id="polyline58" />
    <polyline
       class="cls-11"
       points="339.38 922.85 355.2 884.93 391.09 907.41"
       id="polyline60" />
  </g>
</svg>
