<?xml version="1.0" encoding="UTF-8" standalone="no"?>
<svg
   viewBox="0 0 250 100"
   version="1.1"
   id="svg87"
   sodipodi:docname="scroll-experiences-board.svg"
   width="250"
   height="100"
   inkscape:version="1.1 (c68e22c387, 2021-05-23)"
   xmlns:inkscape="http://www.inkscape.org/namespaces/inkscape"
   xmlns:sodipodi="http://sodipodi.sourceforge.net/DTD/sodipodi-0.dtd"
   xmlns="http://www.w3.org/2000/svg"
   xmlns:svg="http://www.w3.org/2000/svg">
  <sodipodi:namedview
     id="namedview89"
     pagecolor="#ffffff"
     bordercolor="#666666"
     borderopacity="1.0"
     inkscape:pageshadow="2"
     inkscape:pageopacity="0.0"
     inkscape:pagecheckerboard="0"
     showgrid="false"
     inkscape:zoom="3.8970042"
     inkscape:cx="128.17538"
     inkscape:cy="49.910134"
     inkscape:window-width="1920"
     inkscape:window-height="1012"
     inkscape:window-x="0"
     inkscape:window-y="32"
     inkscape:window-maximized="1"
     inkscape:current-layer="svg87" />
  <defs
     id="defs4">
    <style
       id="style2">.cls-1{fill:#afddd9;}.cls-2{fill:#d5f2ef;}.cls-3{fill:#57aef3;}.cls-4{fill:#51bdad;}.cls-5{fill:#d1ece9;}.cls-6{fill:#f7a936;}.cls-7{fill:#f5fafa;}.cls-8{fill:#f05656;}.cls-9{fill:#30e6d2;}</style>
  </defs>
  <g
     id="Layer_1"
     data-name="Layer 1"
     transform="matrix(0.06507576,0,0,0.06507576,76.117534,2.3082063)">
    <path
       class="cls-1"
       d="m 246.82,793.49 h -91.91 a 4,4 0 0 1 -4,-3.76 C 128.61,415.54 432,112.23 806.1,134.53 a 4,4 0 0 1 3.77,4 v 91.91 a 4,4 0 0 1 -4.32,4 C 490.81,210.61 227,474.45 250.8,789.18 a 4,4 0 0 1 -3.98,4.31 z"
       id="path6" />
    <path
       class="cls-1"
       d="m 759.87,1352.21 h -46 a 4,4 0 0 1 -4,-4 v -91.67 a 4,4 0 0 1 4.31,-4 c 314.75,23.8 578.56,-240 554.76,-554.76 a 4,4 0 0 1 4,-4.31 h 91.94 a 4,4 0 0 1 4,3.73 c 23.52,349.15 -256.18,658.16 -609.01,655.01 z"
       id="path8" />
    <circle
       class="cls-2"
       cx="1117.46"
       cy="910"
       r="177.95"
       id="circle10" />
    <circle
       class="cls-2"
       cx="1130.67"
       cy="374.42001"
       r="158.36"
       id="circle12" />
    <circle
       class="cls-2"
       cx="465.95001"
       cy="1006.58"
       r="208.67"
       id="circle14" />
    <circle
       class="cls-2"
       cx="456.67999"
       cy="398.31"
       r="242.35001"
       id="circle16" />
    <path
       class="cls-3"
       d="m 278.27,333.81 a 6.81,6.81 0 0 1 -3.08,-0.74 7,7 0 0 1 -3.06,-9.34 L 284,299.81 h -37.9 l -14.41,29.74 a 6.84,6.84 0 0 1 -9.2,3.18 7,7 0 0 1 -3.14,-9.31 l 11.44,-23.61 h -17.26 a 7,7 0 0 1 0,-13.92 h 24 l 14.29,-29.5 h -19.44 a 7,7 0 0 1 0,-13.91 h 26.2 l 17,-35 a 6.84,6.84 0 0 1 9.2,-3.18 7,7 0 0 1 3.14,9.31 l -14,28.9 h 38.5 l 17.38,-35.08 a 6.82,6.82 0 0 1 9.22,-3.1 7,7 0 0 1 3.06,9.34 l -14.29,28.84 h 15.31 a 7,7 0 0 1 0,13.91 h -22.23 l -14.62,29.5 h 18 a 7,7 0 0 1 0,13.92 H 299.36 L 284.41,330 a 6.86,6.86 0 0 1 -6.14,3.81 z m -25.42,-47.92 h 38 l 14.61,-29.5 h -38.32 z"
       id="path18" />
    <rect
       class="cls-4"
       x="376.75"
       y="434.29001"
       width="746.92999"
       height="510.37"
       rx="36.5"
       id="rect20" />
    <rect
       class="cls-5"
       x="575.56"
       y="833.27002"
       width="187.7"
       height="19.07"
       rx="4.3000002"
       id="rect22" />
    <rect
       class="cls-5"
       x="574.94"
       y="866.94"
       width="119.22"
       height="19.07"
       rx="3.4300001"
       id="rect24" />
    <rect
       class="cls-5"
       x="759.57001"
       y="481.76999"
       width="318.37"
       height="47.200001"
       rx="10.07"
       id="rect26" />
    <rect
       class="cls-6"
       x="498.75"
       y="343.01999"
       width="302.98999"
       height="371.89001"
       rx="21.059999"
       id="rect28" />
    <path
       class="cls-6"
       d="m 775.83,787 -5.23,-74 h -68.79 l 67,76.89 a 4,4 0 0 0 7.02,-2.89 z"
       id="path30" />
    <path
       class="cls-7"
       d="m 552.25,393.29 a 11.64,11.64 0 1 0 -11.94,-11.64 11.81,11.81 0 0 0 11.94,11.64 z m 6.74,3 h -13.47 a 16.09,16.09 0 0 0 -11.28,4.56 15.26,15.26 0 0 0 -4.67,11 v 7 a 5.29,5.29 0 0 0 3.77,5.05 68.58,68.58 0 0 0 37.83,0 5.29,5.29 0 0 0 3.77,-5.05 v -7 a 15.26,15.26 0 0 0 -4.67,-11 16.11,16.11 0 0 0 -11.27,-4.54 z"
       id="path32" />
    <rect
       class="cls-7"
       x="422.22"
       y="574.66998"
       width="237.32001"
       height="16.91"
       rx="4.5500002"
       id="rect34" />
    <rect
       class="cls-7"
       x="421.42999"
       y="604.53003"
       width="238.11"
       height="16.91"
       rx="4.5599999"
       id="rect36" />
    <rect
       class="cls-7"
       x="420.67999"
       y="640.04999"
       width="239.24001"
       height="16.91"
       rx="4.5700002"
       id="rect38" />
    <rect
       class="cls-7"
       x="420.67999"
       y="669.91998"
       width="151.88"
       height="16.91"
       rx="3.6400001"
       id="rect40" />
    <rect
       class="cls-7"
       x="589.16998"
       y="389.85999"
       width="72.300003"
       height="16.91"
       rx="2.51"
       id="rect42" />
    <rect
       class="cls-7"
       x="464.98999"
       y="450.01999"
       width="238.67"
       height="94.949997"
       rx="8"
       id="rect44" />
    <rect
       class="cls-8"
       x="864.37"
       y="610.12"
       width="340.85001"
       height="193.99001"
       rx="16.129999"
       id="rect46" />
    <path
       class="cls-8"
       d="m 909.18,841 5.63,-36.93 H 992.2 L 915,845.18 A 4,4 0 0 1 909.18,841 Z"
       id="path48" />
    <path
       class="cls-7"
       d="m 854.74,653.82 c 5,0 9.06,-3.69 9.07,-8.25 0.01,-4.56 -4.06,-8.24 -9.07,-8.25 -5.01,-0.01 -9.07,3.7 -9.08,8.25 -0.01,4.55 4.06,8.24 9.08,8.25 z m 5.11,2.15 h -10.23 a 12.72,12.72 0 0 0 -8.57,3.22 10.5,10.5 0 0 0 -3.55,7.81 v 5 a 3.8,3.8 0 0 0 2.87,3.58 55.86,55.86 0 0 0 28.74,0 A 3.79,3.79 0 0 0 872,672 v -5 a 10.5,10.5 0 0 0 -3.55,-7.79 12.72,12.72 0 0 0 -8.57,-3.22 z"
       id="path50" />
    <rect
       class="cls-7"
       x="838.65997"
       y="694.48999"
       width="267.95999"
       height="11.99"
       rx="4.0700002"
       id="rect52" />
    <rect
       class="cls-7"
       x="837.77002"
       y="715.65997"
       width="268.85001"
       height="11.99"
       rx="4.0799999"
       id="rect54" />
    <rect
       class="cls-7"
       x="836.92999"
       y="740.84003"
       width="270.14001"
       height="11.99"
       rx="4.0900002"
       id="rect56" />
    <rect
       class="cls-7"
       x="836.92999"
       y="762.01001"
       width="171.49001"
       height="11.99"
       rx="3.26"
       id="rect58" />
    <rect
       class="cls-7"
       x="882.78998"
       y="651.39001"
       width="54.939999"
       height="11.99"
       rx="1.84"
       id="rect60" />
    <path
       class="cls-7"
       d="M 504.74,896.52 478.6,881.88 a 4,4 0 0 0 -3.7,-0.11 l -27,13 a 4,4 0 0 1 -5.66,-4.4 l 5.93,-29.08 a 4,4 0 0 0 -1.05,-3.59 l -20.77,-21.32 a 4,4 0 0 1 2.41,-6.77 l 29.75,-3.38 a 4,4 0 0 0 3.08,-2.08 l 14.07,-26.27 a 4,4 0 0 1 7.16,0.21 l 12.47,27.07 a 4,4 0 0 0 2.95,2.27 l 29.49,5.16 a 4,4 0 0 1 2,6.9 l -22,20 a 4,4 0 0 0 -1.27,3.52 l 4.18,29.39 a 4,4 0 0 1 -5.9,4.12 z"
       id="path62" />
    <path
       class="cls-8"
       d="m 470.36,1167.63 a 35.63,35.63 0 0 0 -50.32,0 l -4.7,4.69 a 5,5 0 0 1 -6.9,0 l -4.71,-4.69 a 35.55,35.55 0 0 0 -50.31,50.24 l 8.15,8.14 46.87,46.8 a 5,5 0 0 0 6.9,0 l 46.87,-46.8 8.15,-8.14 a 35.5,35.5 0 0 0 0,-50.24 z"
       id="path64" />
    <path
       class="cls-3"
       d="m 1044.42,316.42 a 66.64,66.64 0 0 1 0,-133.28 h 2.07 a 66.64,66.64 0 0 1 0,133.22 q -1,0 -2.07,0 z"
       id="path66" />
    <path
       class="cls-7"
       d="m 1030.56,225.42 a 11,11 0 0 0 -8.91,-10.79 10.84,10.84 0 0 0 -2.07,-0.19 11,11 0 0 0 0,22 10.84,10.84 0 0 0 2.07,-0.2 11,11 0 0 0 8.91,-10.78 z"
       id="path68" />
    <path
       class="cls-7"
       d="m 1071.33,214.63 a 10.84,10.84 0 0 0 -2.07,-0.19 11,11 0 0 0 0,22 10.84,10.84 0 0 0 2.07,-0.2 11,11 0 0 0 0,-21.57 z"
       id="path70" />
    <path
       class="cls-7"
       d="m 1064,273.22 h -39.22 a 5.32,5.32 0 0 0 -5.3,5.3 v 2 a 5.31,5.31 0 0 0 5.3,5.3 H 1064 a 5.3,5.3 0 0 0 5.3,-5.3 v -2 a 5.32,5.32 0 0 0 -5.3,-5.3 z"
       id="path72" />
    <path
       class="cls-6"
       d="m 995.8,1134.12 a 68.06,68.06 0 0 1 0,-136.11 c 0.71,0 1.42,0 2.12,0 a 68.06,68.06 0 0 1 0,136 c -0.71,0 -1.41,0 -2.12,0 z"
       id="path74" />
    <path
       class="cls-7"
       d="m 970.35,1047.76 a 11.22,11.22 0 1 0 -11.22,-11.21 11.27,11.27 0 0 0 11.22,11.21 z"
       id="path76" />
    <path
       class="cls-7"
       d="m 1021.09,1047.76 a 11.22,11.22 0 1 0 -11.21,-11.21 11.27,11.27 0 0 0 11.21,11.21 z"
       id="path78" />
    <path
       class="cls-7"
       d="m 1031.16,1088.75 a 4.44,4.44 0 0 0 -2.12,-0.53 4.49,4.49 0 0 0 -3.1,1.25 v 0 a 41.34,41.34 0 0 1 -28.13,13.16 c -0.7,0 -1.41,0.05 -2.11,0.05 a 41.36,41.36 0 0 1 -30.25,-13.21 v 0 a 4.7,4.7 0 0 0 -0.7,-0.46 4.43,4.43 0 0 0 -2.11,-0.53 4.47,4.47 0 0 0 -3.69,7 l -0.08,0.08 a 51.79,51.79 0 0 0 7.58,6.69 50,50 0 0 0 29.29,9.41 c 0.7,0 1.41,0 2.11,0 a 51.32,51.32 0 0 0 8.5,-1.07 50.18,50.18 0 0 0 18.67,-8.29 50.78,50.78 0 0 0 7.58,-6.69 v 0 a 4.48,4.48 0 0 0 -1.33,-6.79 z"
       id="path80" />
    <path
       class="cls-9"
       d="M 1341.15,605.14 1315,590.49 a 4,4 0 0 0 -3.69,-0.11 l -27,13 a 4,4 0 0 1 -5.66,-4.4 l 5.94,-29.08 a 4,4 0 0 0 -1.06,-3.59 L 1262.79,545 a 4,4 0 0 1 2.42,-6.76 l 29.75,-3.38 a 4,4 0 0 0 3.07,-2.09 l 14.08,-26.27 a 4,4 0 0 1 7.15,0.22 l 12.47,27.07 a 4,4 0 0 0 3,2.27 l 29.49,5.16 a 4,4 0 0 1 2,6.89 l -22,20 a 4,4 0 0 0 -1.27,3.52 l 4.18,29.39 a 4,4 0 0 1 -5.98,4.12 z"
       id="path82" />
    <circle
       class="cls-3"
       cx="206.66"
       cy="914.37"
       r="32.779999"
       id="circle84" />
  </g>
</svg>
