<svg xmlns="http://www.w3.org/2000/svg" xmlns:xlink="http://www.w3.org/1999/xlink" viewBox="0 0 1500 1500">
  <defs>
    <style>
      .cls-1, .cls-2, .cls-3 { fill: none; }
      .cls-1, .cls-2 { stroke: #39375a; stroke-linecap: round; stroke-linejoin: round; stroke-width: 64px; }
      .cls-2 { clip-path: url(#clip-path); }
      .cls-3 { stroke: #39375a; stroke-miterlimit: 10; stroke-width: 24px; }
      .cls-3, .cls-7 { fill-rule:evenodd; }
      .cls-4 { fill: #DBD2EF; }
      .cls-5 { fill: #DBD2EF; }
      .cls-6 { fill: #39375a; }
      .cls-7, .cls-8 { fill: #e6645c; }
      .cls-9 { fill: #c4a578; }
      .cls-10 { fill: #9bc6e8; }
    </style>
    <clipPath id="clip-path">
      <path class="cls-1" d="M969.27,1259.37c-85.83,39.23-171.34,42-239.67,38.87"/>
    </clipPath>
    <clipPath id="clip-path-2">
      <path class="cls-2" d="M1017.22,266.33c105.45,53.75,214.41,194,253,303.25,45.49,128.88,43.1,279.76-23.24,396.57"/>
    </clipPath>
  </defs>
  <g id="Layer_1" data-name="Layer 1">
<path class="cls-3" d="M881.44,982.49c75.23,139.52,227.17,196.94,408.12,188.8"/>
<path class="cls-4" d="M1227.08,1246.76l-.06-.06a17,17,0,0,1-1.73-24.14l45.34-51.85-52.7-44.6A17,17,0,0,1,1216,1102h0a17,17,0,0,1,24-1.79l65.15,55.87a17,17,0,0,1,1.81,24l-55.9,64.85A17,17,0,0,1,1227.08,1246.76Z"/>
<path class="cls-3" d="M229.1,324.92S519,294.88,619,527.29"/>
<path class="cls-4" d="M907.47,765a158.45,158.45,0,0,1-96.19,111.79,227.42,227.42,0,0,1-49.14,83,226.94,226.94,0,0,0,161.39,67.09c125.74,0,227.68-101.94,227.68-227.68,0-102.8-68.14-189.68-161.72-218,.11,2.87.18,5.76.18,8.66A227.2,227.2,0,0,1,907.47,765Z"/>
<path class="cls-5" d="M753.31,887.72A158,158,0,0,1,596,745.62a226.86,226.86,0,0,1-61.67-155.79c0-1.45,0-2.89.06-4.33C438.15,612.1,367.49,700.27,367.49,805c0,125.74,101.94,227.68,227.68,227.68A227.92,227.92,0,0,0,811.28,876.76,157.62,157.62,0,0,1,753.31,887.72Z"/>
<path class="cls-6" d="M989.49,581.17c-4.55-121.73-104.66-219-227.5-219-124.29,0-225.31,99.61-227.62,223.35,0,1.44-.06,2.88-.06,4.33A226.86,226.86,0,0,0,596,745.62a160.19,160.19,0,0,1-.81-16A158.14,158.14,0,1,1,907.47,765a227.2,227.2,0,0,0,82.2-175.14C989.67,586.93,989.6,584,989.49,581.17Z"/>
<path class="cls-1" d="M969.27,1259.37c-85.83,39.23-171.34,42-239.67,38.87"/>
<path class="cls-1" d="M1017.22,266.33c105.45,53.75,214.41,194,253,303.25,45.49,128.88,43.1,279.76-23.24,396.57"/>
<path class="cls-1" d="M259.47,518.68a545.12,545.12,0,0,0-27.32,395.74c59.15,189.16,210.18,322.12,387.23,367.37"/>
<path class="cls-1" d="M916.23,229.1a544.61,544.61,0,0,0-343.92,6.74q-16.8,5.92-33,12.82"/>
<path class="cls-7" d="M750.7,756a25.81,25.81,0,1,0-25.81-25.81A25.85,25.85,0,0,0,750.7,756Z"/>
<path class="cls-8" d="M932.92,930.31a12.63,12.63,0,0,0,17.86-17.86L768.56,730.23,918.48,580.31a12.63,12.63,0,0,0-17.86-17.86L741.77,721.3a12.63,12.63,0,0,0,0,17.86L932.92,930.31Z"/>
<circle class="cls-9" cx="448.47" cy="452.72" r="35.17"/>
<circle class="cls-10" cx="881.44" cy="1122.01" r="35.17"/>
<path class="cls-6" d="M278.18,397.52l.06-.07a17,17,0,0,0-.07-24.2L229.1,324.92l49.24-48.4a17,17,0,0,0,.08-24.21h0a17,17,0,0,0-24,0l-60.82,60.56a17,17,0,0,0,0,24.12l60.57,60.51A17,17,0,0,0,278.18,397.52Z"/>
</g>
</svg>